#!OML:ASF F:\VICON\USERDATA\INSTALL\rory3\rory3.ASF
:FULLY-SPECIFIED
:DEGREES
616
root -0.886978 18.858 9.69577 -336.951 12.0939 -349.456
lowerback -9.39369 -1.81438 -8.27783
upperback -12.5418 -2.41001 -8.07172
thorax -8.27045 -0.883063 -4.13355
lowerneck -10.1205 -9.91344 -11.7132
upperneck 35.5807 -14.2684 6.18595
head 15.5876 -6.94225 2.1926
rclavicle 8.34896e-015 6.04305e-014
rhumerus 371.446 2.89503 -353.706
rradius 42.9949
rwrist -15.8432
rhand -2.44231 5.07815
rfingers 7.12502
rthumb 23.2491 -23.5384
lclavicle 8.34896e-015 6.04305e-014
lhumerus 13.1764 10.3911 14.7058
lradius 18.793
lwrist -41.2634
lhand -2.16341 29.0355
lfingers 7.12502
lthumb 23.5167 57.618
rfemur -12.9175 16.7185 21.1006
rtibia -2.38542e-015
rfoot -3.01598 -47.2703
rtoes 48.6961
lfemur -24.753 -20.7373 16.9824
ltibia 21.7784
lfoot -72.2185 -20.1645
ltoes 48.4756
617
root -0.894152 18.8519 9.62688 -337.624 9.09306 -349.024
lowerback -8.72231 -2.03085 -8.66281
upperback -12.7075 -2.85356 -8.20363
thorax -8.86236 -1.08411 -4.07096
lowerneck -9.53179 -10.5673 -12.2551
upperneck 35.6482 -15.2958 6.18593
head 15.6806 -7.49066 2.09672
rclavicle -3.69739e-014 -3.97569e-014
rhumerus 371.274 3.275 -354.271
rradius 44.4202
rwrist -17.2408
rhand -2.0339 5.36187
rfingers 7.12502
rthumb 23.6409 -23.2046
lclavicle -3.69739e-014 -3.97569e-014
lhumerus 13.136 10.5565 14.7843
lradius 18.6355
lwrist -41.8164
lhand -2.88205 28.3856
lfingers 7.12502
lthumb 22.8272 57.0548
rfemur -12.5979 15.7473 20.7837
rtibia 4.53229e-014
rfoot 0.104925 -46.1376
rtoes 47.4068
lfemur -23.5993 -19.8282 15.7596
ltibia 21.3178
lfoot -71.9388 -19.0064
ltoes 48.906
618
root -0.888533 18.8412 9.55675 -338.455 6.22452 -348.759
lowerback -8.0507 -2.18579 -8.77815
upperback -12.7937 -3.2221 -8.34063
thorax -9.3706 -1.2733 -4.15087
lowerneck -9.016 -11.1905 -12.9926
upperneck 35.8272 -16.3441 6.43291
head 15.9135 -8.03796 2.12129
rclavicle 3.77691e-014 -1.74931e-014
rhumerus 371.09 3.43834 -354.951
rradius 45.59
rwrist -18.4442
rhand -1.4574 5.96715
rfingers 7.12502
rthumb 24.1937 -22.5268
lclavicle 3.77691e-014 -1.74931e-014
lhumerus 13.0894 10.9349 14.9372
lradius 18.5492
lwrist -42.5419
lhand -3.40954 27.3303
lfingers 7.12502
lthumb 22.3209 56.061
rfemur -14.3503 14.913 20.521
rtibia 3.99971
rfoot 0.857804 -43.9518
rtoes 46.3935
lfemur -22.5604 -20.0622 15.0121
ltibia 20.9119
lfoot -72.22 -18.3736
ltoes 49.5306
619
root -0.878099 18.8276 9.48861 -339.178 3.41638 -348.553
lowerback -7.81398 -2.39274 -8.85484
upperback -12.6223 -3.56171 -8.45117
thorax -9.32409 -1.46184 -4.21682
lowerneck -8.35783 -11.7738 -13.4674
upperneck 35.4821 -17.3519 6.68418
head 15.8231 -8.54273 2.1245
rclavicle 1.19271e-014 -7.95139e-014
rhumerus 370.979 3.27051 -355.713
rradius 46.5526
rwrist -19.4735
rhand -1.4214 6.06057
rfingers 7.12502
rthumb 24.2282 -22.4288
lclavicle 1.19271e-014 -7.95139e-014
lhumerus 12.6972 9.22113 14.109
lradius 19.0161
lwrist -40.5395
lhand -3.38386 27.368
lfingers 7.12502
lthumb 22.3455 56.0958
rfemur -15.5631 14.0138 20.3346
rtibia 6.81733
rfoot 2.11099 -41.6126
rtoes 45.3882
lfemur -21.7477 -20.4417 14.4199
ltibia 20.5759
lfoot -72.5227 -18.4027
ltoes 49.9932
620
root -0.857506 18.8204 9.4132 -339.679 0.758706 -348.394
lowerback -7.72627 -2.60868 -8.72689
upperback -12.4877 -3.89486 -8.52159
thorax -9.239 -1.66374 -4.35548
lowerneck -8.21194 -12.463 -13.8958
upperneck 35.3973 -18.4042 6.67548
head 15.9571 -9.06401 1.96167
rclavicle 2.3059e-014 -8.11041e-014
rhumerus 370.844 2.99974 -356.467
rradius 47.3027
rwrist -20.2584
rhand -1.54508 6.28933
rfingers 7.12502
rthumb 24.1097 -22.2158
lclavicle 2.3059e-014 -8.11041e-014
lhumerus 12.4495 7.76797 13.6997
lradius 19.4942
lwrist -38.6236
lhand -3.07473 28.7221
lfingers 7.12502
lthumb 22.6422 57.4139
rfemur -16.4998 12.9521 20.1573
rtibia 8.71073
rfoot 3.86671 -39.0374
rtoes 44.291
lfemur -21.3774 -19.8262 13.8171
ltibia 20.3175
lfoot -72.522 -18.1411
ltoes 49.9915
621
root -0.842019 18.8085 9.34267 -340.095 -2.43926 -348.121
lowerback -7.75731 -2.68492 -9.06411
upperback -12.5006 -4.03068 -8.56775
thorax -9.23444 -1.72106 -4.22184
lowerneck -7.64958 -13.1138 -14.5124
upperneck 35.0623 -19.4452 6.83471
head 15.9246 -9.60355 1.92558
rclavicle 3.57812e-014 6.04305e-014
rhumerus 370.681 2.69068 -357.148
rradius 47.835
rwrist -20.6464
rhand -1.32057 6.85331
rfingers 7.12502
rthumb 24.3249 -21.6232
lclavicle 3.57812e-014 6.04305e-014
lhumerus 12.3883 7.97969 14.0884
lradius 19.5628
lwrist -38.6494
lhand -2.94564 29.2173
lfingers 7.12502
lthumb 22.7661 57.894
rfemur -17.2731 12.365 19.7507
rtibia 9.95793
rfoot 6.40665 -36.2624
rtoes 42.4543
lfemur -20.8841 -19.9096 13.075
ltibia 20.2297
lfoot -73.2861 -18.6485
ltoes 49.9332
622
root -0.810957 18.8023 9.28337 -340.786 -5.60968 -348.22
lowerback -7.67898 -2.68449 -8.98185
upperback -12.4399 -4.07026 -8.46787
thorax -9.20367 -1.75941 -4.14793
lowerneck -6.57095 -13.6009 -15.4484
upperneck 34.3164 -20.3315 7.37255
head 15.6639 -10.1015 2.16502
rclavicle 1.74931e-014 3.81667e-014
rhumerus 370.768 2.44347 -357.818
rradius 48.08
rwrist -20.7028
rhand -0.922195 7.63495
rfingers 7.12502
rthumb 24.7068 -20.7898
lclavicle 1.74931e-014 3.81667e-014
lhumerus 12.2526 8.64751 14.6417
lradius 19.3019
lwrist -39.0372
lhand -3.28704 27.5261
lfingers 7.12502
lthumb 22.4385 56.2427
rfemur -17.4701 11.8608 19.7679
rtibia 10.8304
rfoot 9.14703 -33.1473
rtoes 40.0596
lfemur -20.0165 -19.6358 12.4589
ltibia 20.3016
lfoot -73.4539 -18.6609
ltoes 49.9103
623
root -0.770334 18.8003 9.23139 -341.399 -8.63266 -348.574
lowerback -7.78616 -2.66715 -8.42874
upperback -12.2984 -4.0549 -8.36431
thorax -8.98846 -1.81622 -4.33148
lowerneck -6.57011 -13.9719 -15.7603
upperneck 34.244 -20.8857 7.3474
head 15.7593 -10.3878 2.06713
rclavicle -6.55989e-015 9.38264e-014
rhumerus 370.669 2.42371 -358.419
rradius 48.6288
rwrist -21.2679
rhand -0.881633 7.93947
rfingers 7.12502
rthumb 24.7457 -20.4799
lclavicle -6.55989e-015 9.38264e-014
lhumerus 12.2766 9.92833 15.409
lradius 18.9685
lwrist -40.2794
lhand -3.41704 24.1356
lfingers 7.12502
lthumb 22.3137 52.8672
rfemur -17.6143 11.7679 19.8509
rtibia 11.5599
rfoot 10.9147 -30.3559
rtoes 38.736
lfemur -19.1815 -18.3092 11.9573
ltibia 20.33
lfoot -72.6751 -18.1055
ltoes 50.0168
624
root -0.729414 18.8009 9.17222 -341.82 -11.5239 -348.701
lowerback -7.95069 -2.68029 -8.03617
upperback -12.2042 -4.08342 -8.38707
thorax -8.80648 -1.88669 -4.57276
lowerneck -6.33336 -14.3415 -15.6515
upperneck 33.9384 -21.489 7.25945
head 15.619 -10.6681 1.90294
rclavicle -4.59193e-014 -1.59028e-014
rhumerus 370.103 2.76083 -358.855
rradius 49.7021
rwrist -22.346
rhand -0.893188 7.55801
rfingers 7.12502
rthumb 24.7346 -20.8629
lclavicle -4.59193e-014 -1.59028e-014
lhumerus 12.3464 9.95568 15.9027
lradius 19.0667
lwrist -40.4119
lhand -2.63217 26.5358
lfingers 7.12502
lthumb 23.0669 55.1752
rfemur -17.846 11.9054 19.5693
rtibia 11.8227
rfoot 12.5033 -27.8625
rtoes 37.3504
lfemur -18.9248 -17.7174 11.5536
ltibia 20.4314
lfoot -72.4059 -17.8068
ltoes 50.1933
625
root -0.69293 18.8006 9.10043 -342.154 -14.4121 -348.601
lowerback -7.98497 -2.74189 -8.08699
upperback -12.2532 -4.20401 -8.38475
thorax -8.84816 -1.95786 -4.54371
lowerneck -5.78883 -14.7129 -15.4813
upperneck 33.4842 -22.1539 7.2394
head 15.3493 -10.9809 1.77854
rclavicle 2.46493e-014 8.5875e-014
rhumerus 369.656 3.07176 -359.334
rradius 50.534
rwrist -22.9814
rhand -0.475139 7.5163
rfingers 7.12502
rthumb 25.1352 -20.8491
lclavicle 2.46493e-014 8.5875e-014
lhumerus 12.1297 8.8535 16.0785
lradius 19.3925
lwrist -38.7712
lhand -2.50777 27.0674
lfingers 7.12502
lthumb 23.1863 55.6918
rfemur -18.2789 12.107 19.059
rtibia 11.9163
rfoot 13.9577 -25.5877
rtoes 35.7501
lfemur -19.0447 -18.021 11.2504
ltibia 20.5226
lfoot -72.8429 -18.0773
ltoes 50.0586
626
root -0.637912 18.8053 9.10984 -343.241 -17.5524 -348.836
lowerback -8.06622 -2.54103 -7.48405
upperback -12.0633 -3.94663 -8.38763
thorax -8.59949 -1.90033 -4.87093
lowerneck -5.01157 -15.044 -15.4921
upperneck 33.1379 -22.7757 7.21226
head 15.1058 -11.312 1.70683
rclavicle -1.59028e-014 -1.27222e-013
rhumerus 369.399 3.33578 -359.86
rradius 51.015
rwrist -23.3728
rhand 0.0994708 7.53645
rfingers 7.12502
rthumb 25.6856 -20.7506
lclavicle -1.59028e-014 -1.27222e-013
lhumerus 12.2045 10.0428 17.2172
lradius 19.1566
lwrist -39.6465
lhand -2.29773 26.3868
lfingers 7.12502
lthumb 23.3878 54.9857
rfemur -17.5481 11.505 19.1439
rtibia 12.1389
rfoot 15.0426 -22.3762
rtoes 34.099
lfemur -17.7048 -19.9635 10.7229
ltibia 20.5312
lfoot -73.6589 -19.8452
ltoes 50.0594
627
root -0.600474 18.8123 9.06756 -343.615 -20.0137 -349.126
lowerback -8.19985 -2.70593 -6.92224
upperback -11.8445 -4.16214 -8.29817
thorax -8.29877 -2.06786 -5.08293
lowerneck -5.04942 -15.4551 -15.5647
upperneck 32.9664 -23.487 7.37598
head 15.1796 -11.6154 1.61589
rclavicle -6.67916e-014 9.54166e-015
rhumerus 369.25 3.28099 -360.58
rradius 51.4882
rwrist -23.8872
rhand 0.20613 7.2206
rfingers 7.12502
rthumb 25.7878 -21.0516
lclavicle -6.67916e-014 9.54166e-015
lhumerus 11.262 5.21621 15.7932
lradius 20.3774
lwrist -33.8077
lhand -1.64791 27.3735
lfingers 7.12502
lthumb 24.0111 55.8917
rfemur -17.7176 11.1572 19.3097
rtibia 12.3748
rfoot 15.8375 -20.3132
rtoes 33.6366
lfemur -17.6271 -19.2891 10.7148
ltibia 20.4858
lfoot -72.8138 -19.1234
ltoes 49.9446
628
root -0.574913 18.817 9.01018 -343.588 -22.2794 -349.303
lowerback -8.52921 -3.03618 -6.65887
upperback -11.8213 -4.59114 -8.14429
thorax -8.10636 -2.31396 -5.07915
lowerneck -5.15328 -15.7395 -15.5179
upperneck 32.956 -24.0096 7.44198
head 15.2803 -11.8325 1.50349
rclavicle -2.06736e-014 -6.83819e-014
rhumerus 369.254 3.4913 -361.288
rradius 51.8454
rwrist -24.5163
rhand 0.539747 7.46197
rfingers 7.12502
rthumb 26.1073 -20.7635
lclavicle -2.06736e-014 -6.83819e-014
lhumerus 10.8618 4.2851 15.6994
lradius 20.6514
lwrist -32.0221
lhand -0.883297 27.6617
lfingers 7.12502
lthumb 24.7441 56.0813
rfemur -18.2433 10.9538 19.3977
rtibia 12.3622
rfoot 16.7581 -19.0082
rtoes 33.1319
lfemur -18.2969 -17.727 10.8644
ltibia 20.6136
lfoot -71.634 -17.6082
ltoes 49.721
